# xmcd CD database file generated by freedbAccess_ocx
#
# Track frame offsets:
#       150
#       13030
#       26745
#       38075
#       49485
#       59515
#       71125
#       82582
#       92842
#       104952
#       117985
#       128775
#       140055
#       150962
#       162737
#       173735
#       185730
#       194057
#       210765
#       223942
#       231592
#       244197
#       253772
#       264412
#       271165
#
# Disc length: 3759 seconds
#
# Revision: 0
# Processed by: cddbd v1.5.2PL0 Copyright (c) Steve Scherf et al.
# Submitted via: CDnGo 1.95
#
DISCID=7f0ead19
DTITLE=Lillian Leach and The Mellows - Yesterday's Memories
DYEAR=1992
DGENRE=Doo Wop
TTITLE0=Yesterday's Memories
TTITLE1=How Sentimental Can I Be
TTITLE2=Nothin' To Do
TTITLE3=Smoke From Your Cigarette
TTITLE4=Pretty Baby, What's Your Name
TTITLE5=Lovable Lily
TTITLE6=I Was A Fool To Let You Go
TTITLE7=I Still Care
TTITLE8=Sweet Lorraine
TTITLE9=My Darling
TTITLE10=I'm Yours
TTITLE11=Lucky Guy
TTITLE12=So Strange (Unreleased)
TTITLE13=Be Mine (Unreleased)
TTITLE14=You're Gone
TTITLE15=Moon Of Silver
TTITLE16=I Call To You  (Acappella)
TTITLE17=My Darling (Acappella)
TTITLE18=I'm Gonna Pick Your Teeth With An Icepick (Acappella)
TTITLE19=I'm Yours (Acappella)
TTITLE20=When The Lights Go On Again (Acappella)
TTITLE21=Sweet Lorraine (Acappella)
TTITLE22=Ain't She Got Nerve (Acappella)
TTITLE23=Lucky Guy (Acappella)
TTITLE24=You're Gone (Acappella)
EXTD=
EXTT0=
EXTT1=
EXTT2=
EXTT3=
EXTT4=
EXTT5=
EXTT6=
EXTT7=
EXTT8=
EXTT9=
EXTT10=
EXTT11=
EXTT12=
EXTT13=
EXTT14=
EXTT15=
EXTT16=
EXTT17=
EXTT18=
EXTT19=
EXTT20=
EXTT21=
EXTT22=
EXTT23=
EXTT24=
PLAYORDER=
